<?xml version="1.0" encoding="utf-8"?>
<!-- Generator: Adobe Illustrator 16.0.4, SVG Export Plug-In . SVG Version: 6.00 Build 0)  -->
<!DOCTYPE svg PUBLIC "-//W3C//DTD SVG 1.1//EN" "http://www.w3.org/Graphics/SVG/1.1/DTD/svg11.dtd">
<svg version="1.1" id="Layer_1" xmlns="http://www.w3.org/2000/svg" xmlns:xlink="http://www.w3.org/1999/xlink" x="0px" y="0px"
	 width="1079.784px" height="1111.855px" viewBox="10.92 0 1079.784 1111.855" enable-background="new 10.92 0 1079.784 1111.855"
	 xml:space="preserve">
<g>
	<g>
		<g>
			<path fill="#880000" d="M799.646,480.219c1.806,0.326,4.29,0.25,5.72-0.752c3.389-2.385,6.375-5.396,9.99-8.584
				c-78.904-42.713-161.594-66.73-249.582-72.427c93.76-11.921,177.656,17.768,258.213,62.013
				c32.877-35.863,62.641-73.757,87.085-116.02c-31.346-22.084-65.979-33.052-103.246-36.966
				c43.617-11.821,85.83-11.193,125.331,14.254c0,0,0.175-0.075,0.201-0.201c26.25-48.687,43.667-100.109,49.314-155.371
				c3.639-35.586,2.508-70.821-5.421-105.756c-0.878-3.814-2.132-7.604-3.237-11.519c-1.782,0.652-2.786,1.004-3.765,1.38
				c-37.018,14.405-72.805,31.446-107.664,50.469c-73.457,40.053-140.989,88.539-204.934,142.22
				C616.593,277.392,576.917,313.43,540,352.254c-35.912,37.77-70.571,76.744-105.706,115.216
				c-4.491,4.944-8.758,10.089-13.15,15.159c3.841-6.45,8.533-12.147,13.15-17.894c47.458-59.077,96.948-116.346,149.148-171.256
				c53.327-56.091,108.893-109.796,169.549-157.956c28.434-22.586,58.248-43.416,87.61-64.798
				c8.583-6.25,17.793-11.595,26.753-17.392c-1.481-0.301-2.608,0.101-3.639,0.603c-46.529,23.114-89.544,51.749-130.9,82.943
				c-61.061,45.977-117.276,97.398-170.431,152.259c-67.96,70.168-130.021,145.333-187.518,224.26
				C313.732,597.244,257.09,684.075,206.32,774.673l0.101-0.124c-1.205,1.731-2.56,3.387-3.589,5.22
				c-5.044,9.06-9.988,18.17-15.008,27.204c-8.407,15.158-17.667,29.915-25.196,45.499
				c-30.041,62.389-59.528,125.029-89.217,187.569c-0.552,1.13-0.854,2.334-1.556,4.189c9.01-4.542,17.292-8.557,25.447-12.874
				c1.506-0.803,3.038-2.433,3.64-4.039c17.844-48.386,42.714-92.933,72.905-134.642c12.171-16.84,26.075-31.395,46.026-38.749
				c8.633-3.163,17.466-5.772,26.35-8.156c4.016-1.079,8.584-2.009,12.448-1.13c10.29,2.359,20.479,5.422,30.417,8.91
				c5.27,1.856,9.988,5.271,16.087,8.582c-7.354-12.296-18.497-17.742-30.492-24.094c31.096-6.396,60.934-11.969,93.107-7.25
				c-15.484-19.399-36.614-14.807-56.467-16.213c3.814-2.536,7.103-4.543,10.215-6.877c3.263-2.408,6.5-4.942,9.411-7.753
				c27.104-26.277,59.829-35.89,96.896-33.203c2.812,0.176,6.299-0.928,8.584-2.61c24.042-17.893,47.857-36.037,71.749-54.131
				c6.751-5.072,13.403-10.267,21.081-16.139c-55.436-23.566-111.25-17.467-167.215-8.959c0.124-0.352,0.124-0.779,0.35-0.929
				c27.507-19.75,58.098-31.696,91.803-34.908c37.417-3.589,73.456,2.685,108.064,17.214c2.785,1.157,4.341,0.855,6.525-0.902
				c16.965-13.728,33.904-27.43,51.12-40.806c3.664-2.887,4.065-5.195,2.358-9.261c-8.332-19.65-24.417-29.463-43.917-34.332
				c-10.766-2.685-21.985-3.614-33.026-5.347c16.989-5.22,34.357-9.208,52.226-10.414c27.83-1.907,54.91,0.804,79.981,14.482
				c1.454,0.802,4.517,0.274,5.972-0.804c21.156-15.184,42.188-30.543,63.166-45.952c5.146-3.765,47.158-34.884,46.43-43.292
				L799.646,480.219z"/>
		</g>
	</g>
</g>
</svg>
